<?xml version="1.0" encoding="UTF-8" standalone="no"?>
<svg width="48px" height="48px" viewBox="0 0 48 48" version="1.1" xmlns="http://www.w3.org/2000/svg" xmlns:xlink="http://www.w3.org/1999/xlink" xmlns:sketch="http://www.bohemiancoding.com/sketch/ns">
    <!-- Generator: Sketch 3.4.4 (17249) - http://www.bohemiancoding.com/sketch -->
    <title>Coffee_3</title>
    <desc>Created with Sketch.</desc>
    <defs>
        <linearGradient x1="50%" y1="0%" x2="50%" y2="100%" id="linearGradient-1">
            <stop stop-color="#000000" stop-opacity="0" offset="0%"></stop>
            <stop stop-color="#000000" offset="100%"></stop>
        </linearGradient>
        <filter x="-50%" y="-50%" width="200%" height="200%" filterUnits="objectBoundingBox" id="filter-2">
            <feGaussianBlur stdDeviation="2.07261029" in="SourceGraphic" result="blur"></feGaussianBlur>
        </filter>
    </defs>
    <g id="Page-1" stroke="none" stroke-width="1" fill="none" fill-rule="evenodd" sketch:type="MSPage">
        <g id="Coffee_3" sketch:type="MSArtboardGroup">
            <g id="Bulle-01" sketch:type="MSLayerGroup" transform="translate(2.000000, 4.000000)">
                <g id="Ombre" transform="translate(0.000000, 17.000000)" filter="url(#filter-2)" fill-opacity="0.75" fill="url(#linearGradient-1)" sketch:type="MSShapeGroup">
                    <g id="Triangle-1">
                        <path d="M24.9915435,22 L20.6717206,16.0416667 L13.9419313,16.0416667 C9.69459375,16.0416667 5.17564942,13.8782161 3.85271353,11.2177638 L0.673303794,4.82390288 C-0.651479741,2.15973488 2.65579674,0 8.06935076,0 L33.1122376,0 C38.521745,0 42.689631,2.16345054 42.4223052,4.82390288 L41.7798417,11.2177638 C41.5121427,13.8819318 37.8551594,16.0416667 33.6046447,16.0416667 L26.9554156,16.0416667 L24.9915435,22 Z"></path>
                    </g>
                </g>
                <g id="Bulle" transform="translate(2.000000, 0.000000)" stroke-width="0.5" stroke="#FFFFFF" fill="#303030" sketch:type="MSShapeGroup">
                    <g id="Triangle-1">
                        <path d="M23.6321839,29.1666667 L20.045977,40 L16.4597701,29.1666667 L9.00170731,29.1666667 C4.03020164,29.1666667 0,25.1417888 0,20.1578097 L0,9.00885696 C0,4.03340265 4.03700043,0 9.00170731,0 L30.9982927,0 C35.9697984,0 40,4.02487783 40,9.00885696 L40,20.1578097 C40,25.133264 35.9629996,29.1666667 30.9982927,29.1666667 L23.6321839,29.1666667 Z"></path>
                    </g>
                </g>
            </g>
            <g id="coffee-8-icon-path-+-coffee-8-icon-path-+-coffee-7-icon-path-+-Rectangle-4" sketch:type="MSLayerGroup" transform="translate(18.000000, 7.000000)" fill="#FFFFFF">
                <g id="coffee-8-icon-path-+-coffee-8-icon-path" transform="translate(2.557692, 0.000000)" sketch:type="MSShapeGroup">
                    <path d="M4.0734534,8.40487545 C9.31066494,3.27729756 2.98986686,3.54795083 4.20214571,0 C0.021395708,4.58340249 5.75991494,4.68619195 4.0734534,8.40487545 L4.0734534,8.40487545 Z" id="coffee-8-icon-path"></path>
                    <path d="M0.999914939,8.40641484 C4.48625148,5.01345289 0.265251477,4.68087405 1.09596302,2.2836894 C-1.82478698,5.62900014 2.14710725,5.71632571 0.999914939,8.40641484 L0.999914939,8.40641484 Z" id="coffee-8-icon-path"></path>
                </g>
                <g id="coffee-7-icon-path-+-Rectangle-4" transform="translate(0.000000, 10.006054)" sketch:type="MSShapeGroup">
                    <path d="M10.0253527,6.8633086 C9.57940628,7.75970219 9.08764761,8.54484681 8.60573124,9.27832535 L3.0896763,9.27832535 C1.64257491,7.06145984 0.182497441,4.57509975 0,0 L11.6954075,0 C11.6813904,0.351696985 11.6594623,0.691713519 11.6302761,1.02074845 L11.6634509,0.905054136 L12.6673489,1.19291726 C15.393487,1.97462478 13.4344013,6.47736674 10.0253527,6.8633086 Z M10.6118935,5.53530932 C10.9969137,4.53897339 11.312549,3.40814377 11.5057965,2.08607639 L12.1442871,2.26916064 C13.4077816,2.63146184 12.4551437,4.84126157 10.6118935,5.53530932 Z" id="coffee-7-icon-path"></path>
                    <rect id="Rectangle-4" x="0.716826923" y="9.7717701" width="10.2539795" height="1.12794197"></rect>
                </g>
            </g>
        </g>
    </g>
</svg>